{
	"asset":{
		"generator":"Khronos glTF Blender I/O v3.6.6",
		"version":"2.0"
	},
	"extensionsUsed":[
		"KHR_lights_punctual"
	],
	"extensionsRequired":[
		"KHR_lights_punctual"
	],
	"extensions":{
		"KHR_lights_punctual":{
			"lights":[
				{
					"color":[
						1,
						1,
						1
					],
					"intensity":54351.41306588226,
					"type":"point",
					"name":"Light"
				}
			]
		}
	},
	"scene":0,
	"scenes":[
		{
			"name":"Scene",
			"nodes":[
				0,
				1,
				2
			]
		}
	],
	"nodes":[
		{
			"extensions":{
				"KHR_lights_punctual":{
					"light":0
				}
			},
			"name":"Light",
			"rotation":[
				-0.28416627645492554,
				0.7269423007965088,
				0.34203392267227173,
				0.5232754945755005
			],
			"translation":[
				4.025627613067627,
				4.5642242431640625,
				-0.28052377700805664
			]
		},
		{
			"camera":0,
			"name":"Camera",
			"rotation":[
				-0.17110589146614075,
				0.3430515229701996,
				0.0637064203619957,
				0.9214012026786804
			],
			"translation":[
				4.119870662689209,
				3.0265700817108154,
				4.373751640319824
			]
		},
		{
			"mesh":0,
			"name":"Sphere",
			"translation":[
				0.8281484246253967,
				0.8672217130661011,
				0.3270725607872009
			]
		}
	],
	"cameras":[
		{
			"name":"Camera",
			"perspective":{
				"aspectRatio":1.7777777777777777,
				"yfov":0.39959652046304894,
				"zfar":100,
				"znear":0.10000000149011612
			},
			"type":"perspective"
		}
	],
	"meshes":[
		{
			"name":"Sphere",
			"primitives":[
				{
					"attributes":{
						"POSITION":0,
						"TEXCOORD_0":1,
						"NORMAL":2
					},
					"indices":3
				}
			]
		}
	],
	"accessors":[
		{
			"bufferView":0,
			"componentType":5126,
			"count":8249,
			"max":[
				1.0999220609664917,
				1.1109709739685059,
				0.9421303868293762
			],
			"min":[
				-1.1130082607269287,
				-0.9173846244812012,
				-0.862128734588623
			],
			"type":"VEC3"
		},
		{
			"bufferView":1,
			"componentType":5126,
			"count":8249,
			"type":"VEC2"
		},
		{
			"bufferView":2,
			"componentType":5126,
			"count":8249,
			"type":"VEC3"
		},
		{
			"bufferView":3,
			"componentType":5123,
			"count":47616,
			"type":"SCALAR"
		}
	],
	"bufferViews":[
		{
			"buffer":0,
			"byteLength":98988,
			"byteOffset":0,
			"target":34962
		},
		{
			"buffer":0,
			"byteLength":65992,
			"byteOffset":98988,
			"target":34962
		},
		{
			"buffer":0,
			"byteLength":98988,
			"byteOffset":164980,
			"target":34962
		},
		{
			"buffer":0,
			"byteLength":95232,
			"byteOffset":263968,
			"target":34963
		}
	],
	"buffers":[
		{
			"byteLength":359200,
			"uri":"data:application/octet-stream;base64,"
		}
	]
}
